<svg width="32" height="32" viewBox="0 0 32 32" fill="none" xmlns="http://www.w3.org/2000/svg">
  <!-- Dark background with subtle border -->
  <rect width="32" height="32" rx="7" fill="#0f0f18"/>
  <rect x="0.5" y="0.5" width="31" height="31" rx="6.5" stroke="#2a2a3d" stroke-width="1"/>

  <!-- Crown body -->
  <!-- Left outer peak -->
  <polygon points="3,23 6,12 10,18" fill="#f5c842"/>
  <!-- Left inner valley -->
  <polygon points="6,12 10,18 10,23" fill="#c9a227"/>
  <!-- Center peak -->
  <polygon points="10,18 16,9 22,18" fill="#f5c842"/>
  <!-- Right inner valley -->
  <polygon points="22,18 22,23 26,12" fill="#c9a227"/>
  <!-- Right outer peak -->
  <polygon points="22,18 26,12 29,23" fill="#f5c842"/>

  <!-- Crown base band -->
  <rect x="3" y="21" width="26" height="4" rx="1.5" fill="#f5c842"/>
  <rect x="3" y="21" width="26" height="2" rx="1" fill="#fde98a"/>

  <!-- Gems on the crown band -->
  <circle cx="9"  cy="23" r="1.5" fill="#0f0f18"/>
  <circle cx="16" cy="23" r="1.5" fill="#0f0f18"/>
  <circle cx="23" cy="23" r="1.5" fill="#0f0f18"/>

  <!-- Peak dots / jewels -->
  <circle cx="6"  cy="12" r="1.8" fill="#fde98a"/>
  <circle cx="16" cy="9"  r="2"   fill="#fde98a"/>
  <circle cx="26" cy="12" r="1.8" fill="#fde98a"/>
</svg>
